Coordinates
version=1
nRows=5
nColumns=40
inDegrees=yes

Units are S.I. units (second, meters, Newtons, ...)
Angles are in degrees.

endheader
time	pelvis_tilt	pelvis_list	pelvis_rotation	pelvis_tx	pelvis_ty	pelvis_tz	hip_flexion_r	hip_adduction_r	hip_rotation_r	knee_angle_r	knee_angle_r_beta	ankle_angle_r	subtalar_angle_r	mtp_angle_r	hip_flexion_l	hip_adduction_l	hip_rotation_l	knee_angle_l	knee_angle_l_beta	ankle_angle_l	subtalar_angle_l	mtp_angle_l	lumbar_extension	lumbar_bending	lumbar_rotation	arm_flex_r	arm_add_r	arm_rot_r	elbow_flex_r	pro_sup_r	wrist_flex_r	wrist_dev_r	arm_flex_l	arm_add_l	arm_rot_l	elbow_flex_l	pro_sup_l	wrist_flex_l	wrist_dev_l
      1.46000000	      4.35128885	     -0.61658400	      0.45215013	     -0.21299894	      0.89255462	     -1.64090296	     22.81392266	     -1.19997814	    -17.95681536	    -21.82604831	     -0.38093641	     -2.99833046	      0.86784729	     -3.66902319	    -12.51994999	     -3.72480552	     10.12933829	    -12.81096798	     -0.22359357	     12.43206577	     -8.02321381	     -6.16556617	    -11.08157106	      3.45678099	     -4.65399803	     -1.25146829	     -9.25836999	     20.85782023	     11.54386171	     89.95437384	      0.00000000	      0.00000000	     18.70072156	     11.67285975	    -15.70185235	     35.94277853	     89.95437384	      0.00000000	      0.00000000
      1.47000000	      4.07451839	     -0.46709655	      0.32720210	     -0.20457159	      0.89125336	     -1.64051990	     23.35884361	     -1.27191844	    -18.70492697	    -21.11123578	     -0.36846057	     -2.81119644	      0.84624618	     -3.63073027	    -12.76314160	     -3.85724396	     10.21445738	    -12.90272968	     -0.22519512	     12.49876291	     -8.00247568	     -6.14950893	    -10.88878658	      3.28554658	     -4.39971450	     -1.55772299	     -9.17730290	     20.84235074	     11.46606754	     89.95437384	      0.00000000	      0.00000000	     18.99104250	     11.54663552	    -15.61417421	     36.42307669	     89.95437384	      0.00000000	      0.00000000
      1.48000000	      4.14951666	     -1.07318727	      0.89845056	     -0.19524742	      0.89086128	     -1.64070935	     22.75974146	     -0.71486863	    -20.54091377	    -19.47484606	     -0.33990019	     -3.10528367	      1.84584477	     -3.66291042	    -13.32918361	     -2.95937320	      9.81453584	    -13.25164050	     -0.23128476	     12.50551046	     -8.47123553	     -6.24427847	    -10.96623106	      4.06893912	     -4.91452006	     -1.86402430	     -9.16646584	     20.54107948	     11.58385738	     89.95437384	      0.00000000	      0.00000000	     18.88763817	     11.53247421	    -15.28962283	     37.25590951	     89.95437384	      0.00000000	      0.00000000
      1.49000000	      4.39399292	     -1.42071937	      1.18069893	     -0.18577452	      0.89073840	     -1.64065561	     22.14362390	     -0.35091241	    -21.92391561	    -18.45820147	     -0.32215639	     -2.98880374	      2.77832802	     -3.80716934	    -14.08986839	     -2.34517832	      9.99826948	    -13.57696246	     -0.23696270	     12.48796470	     -9.03796091	     -6.30839906	    -11.23912058	      4.51657602	     -5.10884666	     -2.04660800	     -9.07106079	     20.23631695	     11.46286809	     89.95437384	      0.00000000	      0.00000000	     18.88520273	     11.35649599	    -14.79452137	     37.75322643	     89.95437384	      0.00000000	      0.00000000
      1.50000000	      4.11881302	     -1.29028257	      1.16113904	     -0.17660262	      0.88980147	     -1.64051451	     22.42860364	     -0.38344150	    -22.06253338	    -18.29546483	     -0.31931610	     -2.84215546	      2.73579772	     -3.76698427	    -14.25680713	     -2.44511525	      9.93289204	    -13.90099423	     -0.24261812	     12.33186288	     -8.92283696	     -6.24380584	    -10.96783458	      4.39124409	     -4.95607622	     -2.39430066	     -9.01346256	     20.19645200	     11.51500932	     89.95437384	      0.00000000	      0.00000000	     18.90852487	     11.17687817	    -14.70790871	     38.08881244	     89.95437384	      0.00000000	      0.00000000
